<svg
    xmlns="http://www.w3.org/2000/svg"
    width="134"
    height="62"
    viewBox="0 0 134 62"
    fill="none"
>
    <path
        d="M39.9434 43.6963V22.0635L47.4166 22.0906V23.1993H43.0957V32.0686H46.6828V33.1774H43.0957V42.5876H47.4981V43.6963H39.9434ZM50.0525 43.6963H48.6122V42.5876H50.1612C50.2518 42.245 50.3967 41.6592 50.596 40.83C50.7953 40.0007 51.0988 38.7794 51.5064 37.1659C51.914 35.5524 52.4348 33.4703 53.0689 30.9194C53.703 28.3686 54.3176 25.9092 55.2778 22.0873L61.6834 42.5876H63.2867V43.6963H61.8465H50.0525ZM54.8625 29.3105C54.2646 31.6721 53.7664 33.6506 53.3679 35.246C52.9693 36.8414 52.6432 38.1439 52.3896 39.1535C52.136 40.1629 51.9412 40.9291 51.8053 41.4519C51.6694 41.9747 51.5653 42.3532 51.4928 42.5876H58.7214L54.8625 29.3105ZM73.6133 22.0873H75.0536V43.7233H73.6133V27.9855L68.5315 41.2897L68.521 43.6963H65.5151L65.5361 22.0873H68.5315V37.9366L73.6133 24.5784V22.0873Z"
        fill="#303239"
    />
    <path
        d="M108.347 30.1605C108.347 32.0622 107.882 33.7396 106.954 35.1928C106.025 36.646 104.696 37.7493 102.965 38.5028C101.865 38.9692 100.819 39.2025 99.8277 39.2025V43.7234L96.9609 43.6697V39.2025V38.0991L97.0009 26.3554C97.003 25.7275 97.0955 25.1534 97.2847 24.6331C97.4741 24.113 97.7491 23.6641 98.1096 23.2874C98.4701 22.9109 98.8986 22.6191 99.3942 22.4131C99.89 22.2068 100.453 22.1034 101.085 22.1034C103.356 22.1034 105.166 22.9573 106.52 24.6601C107.763 26.2222 108.347 27.8462 108.347 30.1605ZM106.886 30.2412C106.886 26.8505 105.804 24.9656 103.573 23.9335C102.973 23.6561 102.338 23.5029 101.652 23.5029C100.463 23.5029 99.8725 24.2656 99.8676 25.7903L99.8277 38.0991C100.657 38.0991 101.513 37.8749 102.397 37.4264C103.749 36.7626 104.84 35.7758 105.669 34.4662C106.48 33.1565 106.886 31.7482 106.886 30.2412ZM117.055 23.1906V43.7234H113.896L113.918 23.1906H110.51V22.0873H120.435V23.1906H117.055Z"
        fill="#303239"
    />
    <path
        fill-rule="evenodd"
        clip-rule="evenodd"
        d="M0.876953 45.0633L1.57046 46.3826C8.13536 46.3826 8.65823 46.3826 15.2231 46.3826L19.4506 23.0451L24.248 62.0293L33.8031 30.507L34.7519 46.3826L79.1239 46.423L81.4966 34.8193H87.9634L87.3975 32.2312L82.027 32.2249L84.6212 19.538L94.0018 62.4279L99.4702 46.3423L132.536 46.0687L133.085 45.0122L116.14 45.0442L95.4839 45.2522L86.2373 0.693665L76.4666 44.6523L38.5032 44.3132L36.0483 13.8765L28.3654 38.7847C26.6868 42.3157 27.8178 40.1658 26.5514 41.7514L20.8963 1.12405L12.9638 44.9795L0.876953 45.0633Z"
        fill="#CB2D2D"
    />
</svg>