<svg width="20" height="20" viewBox="0 0 20 20" fill="none" xmlns="http://www.w3.org/2000/svg">
<path fill-rule="evenodd" clip-rule="evenodd" d="M2.16608 5.55869L9.4078 10.1605C9.58521 10.2713 9.7902 10.33 9.99941 10.33C10.2086 10.33 10.4136 10.2713 10.591 10.1605L10.5923 10.1597L17.8327 5.55869H2.16608ZM11.1232 11.0071C10.7864 11.2181 10.3969 11.33 9.99941 11.33C9.60192 11.33 9.21246 11.2181 8.87562 11.0071L8.87291 11.0054L2.16608 6.74351V15C2.16608 15.6444 2.68841 16.1667 3.33275 16.1667H16.6661C17.3104 16.1667 17.8327 15.6444 17.8327 15V6.74351L11.1232 11.0071Z" fill="#303239"/>
<path d="M3.33275 3.83337C2.68841 3.83337 2.16608 4.35571 2.16608 5.00004V5.55869H17.8327V5.00004C17.8327 4.35571 17.3104 3.83337 16.6661 3.83337H3.33275Z" fill="#303239"/>
</svg>
