<svg
    xmlns="http://www.w3.org/2000/svg"
    width="60"
    height="60"
    viewBox="0 0 60 60"
    fill="none"
>
    <circle
        cx="30"
        cy="30"
        r="29.5"
        stroke="#CB2D2D"
    />
    <path
        d="M37 20C37 16.134 33.866 13 30 13C26.134 13 23 16.134 23 20V26C23 29.866 26.134 33 30 33C33.866 33 37 29.866 37 26V20Z"
        stroke="#CB2D2D"
        stroke-linecap="round"
        stroke-linejoin="round"
    />
    <path
        d="M30 17V21"
        stroke="#CB2D2D"
        stroke-linecap="round"
        stroke-linejoin="round"
    />
    <path
        d="M26 37L29.2929 40.2929C29.6834 40.6834 30.3166 40.6834 30.7071 40.2929L34 37"
        stroke="#CB2D2D"
        stroke-linecap="round"
    />
    <path
        d="M26 43L29.2929 46.2929C29.6834 46.6834 30.3166 46.6834 30.7071 46.2929L34 43"
        stroke="#CB2D2D"
        stroke-linecap="round"
    />
</svg>