<svg
    xmlns="http://www.w3.org/2000/svg"
    xmlns:xlink="http://www.w3.org/1999/xlink"
>
    <symbol
        id="webshop"
        viewBox="0 0 57 9"
    >
        <path
            d="M0.746216 0.453741H1.80109L4.06585 6.42571L6.75491 0.0478516L9.30254 6.42571L11.8116 0.453741H12.8667L9.26394 8.83812L6.74194 2.46026L4.03991 8.83812L0.746216 0.453741ZM18.528 0.453741V1.28989H15.0284V3.65471H18.4252V4.49085H15.0284V7.58404H18.528V8.42019H14.076V0.453741H18.528ZM20.278 0.453741H21.822C22.6799 0.453741 23.3358 0.621142 23.7907 0.955371C24.3051 1.3217 24.5627 1.8712 24.5627 2.60358C24.5627 3.28838 24.2795 3.81007 23.7135 4.16838C24.2622 4.29565 24.672 4.55248 24.9422 4.93859C25.2124 5.32471 25.3473 5.7369 25.3473 6.1749C25.3473 6.5332 25.264 6.86342 25.0966 7.16612C24.9292 7.46853 24.7214 7.7116 24.4725 7.89477C23.992 8.24505 23.3058 8.42019 22.4137 8.42019H20.278V0.453741ZM21.2301 1.28989V3.95339H21.9505C22.0793 3.95339 22.2037 3.94738 22.3238 3.93534C22.444 3.9233 22.5876 3.89148 22.7549 3.83988C22.922 3.788 23.0677 3.71835 23.1922 3.63092C23.3166 3.54321 23.4216 3.41192 23.5075 3.23678C23.5933 3.06135 23.6363 2.85841 23.6363 2.62766C23.6363 2.38086 23.5847 2.16759 23.4819 1.98844C23.3787 1.80929 23.2629 1.676 23.1345 1.58857C23.0057 1.50086 22.8513 1.43321 22.6712 1.38534C22.4909 1.33776 22.3538 1.30966 22.2593 1.30193C22.1651 1.2939 22.0706 1.28989 21.9764 1.28989H21.2301ZM21.2301 4.74167V7.58404H22.3238C23.0187 7.58404 23.5205 7.47254 23.8293 7.24982C24.2066 6.99499 24.3953 6.62866 24.3953 6.15082C24.3953 5.61737 24.1507 5.22725 23.6619 4.98044C23.3531 4.82107 22.8686 4.74167 22.208 4.74167H21.2301ZM31.6908 1.56449L30.9317 2.03029C30.7943 1.78349 30.6273 1.58456 30.4299 1.43321C30.1724 1.25004 29.8509 1.1586 29.4649 1.1586C29.036 1.1586 28.6886 1.27183 28.4227 1.49885C28.1568 1.72587 28.0237 2.02255 28.0237 2.3886C28.0237 2.65948 28.1309 2.89023 28.3455 3.08142C28.5169 3.24079 28.8174 3.40791 29.246 3.58305L30.0696 3.91756C30.6785 4.16437 31.1204 4.41518 31.3949 4.67001C31.8066 5.05211 32.0125 5.53367 32.0125 6.11499C32.0125 6.83963 31.755 7.42897 31.2405 7.88273C30.7258 8.33649 30.0782 8.56351 29.2975 8.56351C28.5255 8.56351 27.9036 8.34853 27.4318 7.91856C27.0458 7.56828 26.7799 7.09847 26.6341 6.50912L27.5605 6.27035C27.6204 6.6685 27.7921 7.00674 28.0753 7.28565C28.3924 7.58003 28.8044 7.72737 29.3105 7.72737C29.8596 7.72737 30.2839 7.5743 30.5843 7.26759C30.8845 6.96116 31.0346 6.58881 31.0346 6.15082C31.0346 5.76872 30.8931 5.45828 30.61 5.21922C30.4469 5.0759 30.1038 4.89273 29.5807 4.67001L28.8087 4.33549C28.2853 4.11248 27.9036 3.89349 27.6634 3.6785C27.269 3.32822 27.0717 2.89424 27.0717 2.37685C27.0717 1.76371 27.2968 1.2681 27.747 0.889729C28.1973 0.511644 28.7744 0.322458 29.4776 0.322458C30.0096 0.322458 30.4685 0.441989 30.8545 0.680765C31.2063 0.895749 31.4848 1.19042 31.6908 1.56449ZM34.7146 0.453741V3.69054H39.115V0.453741H40.0671V8.42019H39.115V4.52669H34.7146V8.42019H33.7622V0.453741H34.7146ZM49.4534 7.3811C48.5913 8.16937 47.5342 8.56351 46.2817 8.56351C45.0295 8.56351 43.9722 8.16937 43.11 7.3811C42.2481 6.59283 41.817 5.61336 41.817 4.44299C41.817 3.26459 42.2503 2.28311 43.1165 1.49885C43.983 0.714589 45.0379 0.322458 46.2817 0.322458C47.5256 0.322458 48.5808 0.714589 49.447 1.49885C50.3135 2.28311 50.7464 3.26459 50.7464 4.44299C50.7464 5.61336 50.3156 6.59283 49.4534 7.3811ZM48.7521 2.11399C48.0746 1.47707 47.2511 1.1586 46.2817 1.1586C45.3124 1.1586 44.4891 1.47707 43.8113 2.11399C43.1338 2.75092 42.7947 3.52744 42.7947 4.44299C42.7947 5.35853 43.1338 6.13505 43.8113 6.77198C44.4891 7.4089 45.3124 7.72737 46.2817 7.72737C47.2511 7.72737 48.0746 7.4089 48.7521 6.77198C49.43 6.13505 49.7687 5.35853 49.7687 4.44299C49.7687 3.52744 49.43 2.75092 48.7521 2.11399ZM52.4964 0.453741H54.0534C55.031 0.453741 55.7518 0.640921 56.215 1.01528C56.7381 1.4292 56.9997 1.99847 56.9997 2.72311C56.9997 3.34427 56.7745 3.8717 56.3243 4.30568C55.8741 4.73966 55.1941 4.95665 54.285 4.95665H53.4484V8.42019H52.4964V0.453741ZM53.4484 1.28989V4.12051H54.2334C54.7994 4.12051 55.2435 3.99324 55.5653 3.73841C55.8867 3.48358 56.0476 3.12929 56.0476 2.67524C56.0476 1.75167 55.4174 1.28989 54.1562 1.28989H53.4484Z"
            fill="#292929"
            fill-opacity="0.219608"
        />
        <path
            d="M0.00354004 0.463995H1.05872L3.32317 6.43597L6.01223 0.0581055L8.55986 6.43597L11.0689 0.463995H12.1241L8.52126 8.84837L5.99957 2.47051L3.29754 8.84837L0.00354004 0.463995ZM17.7854 0.463995V1.30014H14.2857V3.66496H17.6825V4.50111H14.2857V7.5943H17.7854V8.43044H13.3337V0.463995H17.7854ZM19.5353 0.463995H21.0794C21.9372 0.463995 22.5934 0.631396 23.048 0.965625C23.5628 1.33196 23.82 1.88146 23.82 2.61384C23.82 3.29863 23.5368 3.82033 22.9708 4.17863C23.5198 4.3059 23.9293 4.56274 24.1995 4.94885C24.4697 5.33496 24.605 5.74716 24.605 6.18515C24.605 6.54346 24.5213 6.87367 24.3539 7.17637C24.1865 7.47907 23.9787 7.72186 23.7298 7.90502C23.2496 8.2553 22.5635 8.43044 21.6713 8.43044H19.5353V0.463995ZM20.4874 1.30014V3.96365H21.2081C21.3366 3.96365 21.461 3.95763 21.5812 3.94559C21.7013 3.93384 21.8449 3.90173 22.0123 3.85014C22.1796 3.79825 22.3254 3.7286 22.4495 3.64117C22.574 3.55346 22.6793 3.42218 22.7648 3.24704C22.8507 3.07189 22.8936 2.86866 22.8936 2.63791C22.8936 2.39111 22.842 2.17813 22.7392 1.99898C22.6363 1.81954 22.5205 1.68625 22.3918 1.59882C22.263 1.51111 22.1086 1.44346 21.9286 1.39559C21.7485 1.34801 21.6111 1.31992 21.5169 1.31218C21.4224 1.30415 21.3283 1.30014 21.2338 1.30014H20.4874ZM20.4874 4.75192V7.5943H21.5812C22.276 7.5943 22.7778 7.48308 23.0866 7.26007C23.4639 7.00524 23.6526 6.63891 23.6526 6.16107C23.6526 5.62762 23.4084 5.2375 22.9192 4.9907C22.6104 4.83132 22.1259 4.75192 21.4654 4.75192H20.4874ZM30.9481 1.57475L30.1891 2.04054C30.0519 1.79374 29.8846 1.59481 29.6873 1.44346C29.43 1.2603 29.1082 1.16886 28.7222 1.16886C28.2933 1.16886 27.9459 1.28208 27.68 1.5091C27.4142 1.73613 27.2811 2.03281 27.2811 2.39885C27.2811 2.66973 27.3885 2.90048 27.6028 3.09167C27.7745 3.25105 28.0747 3.41816 28.5036 3.5933L29.3269 3.92782C29.9361 4.17462 30.3777 4.42543 30.6523 4.68026C31.0639 5.06236 31.2699 5.54421 31.2699 6.12524C31.2699 6.84988 31.0126 7.43922 30.4979 7.89298C29.9831 8.34674 29.3355 8.57377 28.5549 8.57377C27.7829 8.57377 27.1609 8.35878 26.6894 7.92881C26.3034 7.57853 26.0375 7.10872 25.8914 6.51938L26.8179 6.2806C26.8781 6.67875 27.0495 7.01728 27.3326 7.2959C27.6501 7.59057 28.0617 7.73762 28.5678 7.73762C29.1169 7.73762 29.5415 7.58455 29.8417 7.27784C30.1418 6.97142 30.2919 6.59907 30.2919 6.16107C30.2919 5.77897 30.1505 5.46854 29.8673 5.22947C29.7045 5.08615 29.3612 4.90327 28.838 4.68026L28.066 4.34575C27.5429 4.12274 27.1609 3.90374 26.921 3.68876C26.5263 3.33847 26.329 2.90449 26.329 2.3871C26.329 1.77396 26.5541 1.27835 27.0044 0.899983C27.4549 0.521898 28.0318 0.332712 28.7352 0.332712C29.267 0.332712 29.7259 0.452243 30.1119 0.691019C30.4636 0.906003 30.7424 1.20067 30.9481 1.57475ZM33.9719 0.463995V3.70079H38.3723V0.463995H39.3244V8.43044H38.3723V4.53694H33.9719V8.43044H33.0199V0.463995H33.9719ZM48.7108 7.39135C47.8489 8.17963 46.7916 8.57377 45.539 8.57377C44.2868 8.57377 43.2295 8.17963 42.3676 7.39135C41.5055 6.60308 41.0744 5.62361 41.0744 4.45324C41.0744 3.27484 41.5076 2.29337 42.3738 1.5091C43.2403 0.724843 44.2955 0.332712 45.539 0.332712C46.7829 0.332712 47.8381 0.724843 48.7043 1.5091C49.5708 2.29337 50.004 3.27484 50.004 4.45324C50.004 5.62361 49.5729 6.60308 48.7108 7.39135ZM48.0095 2.12425C47.332 1.48732 46.5084 1.16886 45.539 1.16886C44.5697 1.16886 43.7464 1.48732 43.0686 2.12425C42.3911 2.76117 42.0524 3.53769 42.0524 4.45324C42.0524 5.36878 42.3911 6.14531 43.0686 6.78223C43.7464 7.41916 44.5697 7.73762 45.539 7.73762C46.5084 7.73762 47.332 7.41916 48.0095 6.78223C48.6873 6.14531 49.0261 5.36878 49.0261 4.45324C49.0261 3.53769 48.6873 2.76117 48.0095 2.12425ZM51.7537 0.463995H53.3107C54.2887 0.463995 55.0091 0.651175 55.4723 1.02553C55.9957 1.43945 56.2573 2.00873 56.2573 2.73337C56.2573 3.35453 56.0322 3.88195 55.5816 4.31594C55.1314 4.74992 54.4517 4.96691 53.5423 4.96691H52.7061V8.43044H51.7537V0.463995ZM52.7061 1.30014V4.13076H53.4907C54.0571 4.13076 54.5008 4.00349 54.8226 3.74866C55.1444 3.49384 55.305 3.13954 55.305 2.6855C55.305 1.76193 54.6747 1.30014 53.4135 1.30014H52.7061Z"
            fill="#1D1D1B"
        />
    </symbol>
</svg>